PathFileType	4	(X/Y/Z)	none_P007_Squats1_0-2550.trc
DataRate	CameraRate	NumFrames	NumMarkers	Units	OrigDataRate	OrigDataStartFrame	OrigNumFrames
85	85	8	21	m	85	956	2550
Frame#	Time	RHip			RKnee			RAnkle			RBigToe			RSmallToe			RHeel			LHip			LKnee			LAnkle			LBigToe			LSmallToe			LHeel			Neck			Head			Nose			RShoulder			RElbow			RWrist			LShoulder			LElbow			LWrist		
		X1	Y1	Z1	X2	Y2	Z2	X3	Y3	Z3	X4	Y4	Z4	X5	Y5	Z5	X6	Y6	Z6	X7	Y7	Z7	X8	Y8	Z8	X9	Y9	Z9	X10	Y10	Z10	X11	Y11	Z11	X12	Y12	Z12	X13	Y13	Z13	X14	Y14	Z14	X15	Y15	Z15	X16	Y16	Z16	X17	Y17	Z17	X18	Y18	Z18	X19	Y19	Z19	X20	Y20	Z20	X21	Y21	Z21
957	11.258823529411766	0.7038962614552083	0.8586479188724823	0.4031723649847393	0.6716819872267159	0.44898435065635267	0.39993295071172147	0.7050317842059037	0.07067757541968396	0.36672322504388266	0.528410047597761	0.009579303945824073	0.33605271056851044	0.5816884602785155	0.014141673262615933	0.29896327106970855	0.7419472784244225	0.025558447705042973	0.37868171921730315	0.7082498355434688	0.8676957407798422	0.624738049884714	0.6698078345944105	0.4577759388417261	0.6341711773332287	0.7036477296240561	0.06401073544344842	0.657617583968344	0.5485373336635263	0.01313723742419348	0.6952884748083881	0.5862306592177181	0.01909834236864012	0.7270452430596346	0.7417360893517633	0.023601633555729255	0.6440308030915124	0.5220365305525574	1.358631120348856	0.5153199722273604	0.35144893641212677	1.5854696148848435	0.49952966583712394	0.3589514538653446	1.3964670963436232	0.5048960584003005	0.58274782055074	1.3225680321106326	0.3753927881850356	0.8021263164828303	1.2260375228343434	0.37786144160674157	0.6217763047453988	1.3382037881607505	0.26085842798903236	0.5618789414713339	1.3228179857976576	0.6548045562100836	0.7860400289893641	1.2198753295852884	0.7030272044165696	0.6197436853378936	1.3212788697323692	0.7660371137291739
958	11.270588235294118	0.7036199186091878	0.8584063352633513	0.4032056675384885	0.6707820887266136	0.4492358211830864	0.39976959713843074	0.7050953149702989	0.0706081784752461	0.3667335364333387	0.5284712491748578	0.009492714546820168	0.33604666123751026	0.5818090680081957	0.014179416806234028	0.29893147827431055	0.7419888599811489	0.025624129584474273	0.37874380657483747	0.7078779399217668	0.8676663040655102	0.6247653640230098	0.6695088287723719	0.4576255586766244	0.6342588830906362	0.703638263476711	0.06408217871346152	0.6576684757877551	0.5483740601370654	0.013137166937927817	0.6954016502989839	0.5862614506763599	0.019091946669462234	0.7271450193154383	0.7417440413374107	0.023617193471149375	0.6442368337482152	0.5218011725059093	1.3585889186970785	0.5156843624765409	0.35170381649763843	1.5856524122026312	0.4995164538611473	0.35952388454307777	1.3966974748527001	0.5054835272767716	0.5817442872895028	1.3220293610423428	0.37455055124126124	0.8015973620322385	1.2256939466529104	0.3783450862660874	0.6234714583093478	1.3375359432387757	0.2621671482273359	0.5617533663176475	1.3225332412178517	0.6550323887179118	0.7862035223539429	1.219531480488205	0.7028675562807983	0.6193963076537005	1.3208614620245631	0.7663153690738936
959	11.282352941176471	0.7034161199823068	0.8582706192649137	0.4032021196327205	0.6699528835119106	0.44945372077949985	0.3996301577432758	0.705166357657311	0.07050582117806847	0.3667237201827865	0.5284799164945494	0.009390382091546362	0.3359534436483846	0.5821202501856728	0.014231711604431587	0.29887718398877616	0.7420519807458669	0.025660808576502388	0.3787139638406906	0.7074396685577761	0.867671954250374	0.6247341732076487	0.6691207795630943	0.4574927581169515	0.6344728701774356	0.7036082422124416	0.06416338614001985	0.6577151269236365	0.5481825294750299	0.013142155060502014	0.695563554409723	0.5861470775900631	0.01910434875920634	0.727253444210468	0.7418029762829702	0.023588217453351174	0.6443904190995439	0.521648159017075	1.358622450409484	0.5159946626018822	0.3519718424020156	1.5858495418161134	0.4995681528049563	0.35998667909936083	1.3969430277758577	0.5059370924325619	0.580546442374316	1.3216203026043292	0.3736984531593035	0.8011530350763374	1.225715889602963	0.3786377757597136	0.6281361918970674	1.3366731644445249	0.26462940373798527	0.5618816101998767	1.3224902685943638	0.6552625990223199	0.78643977770072	1.2193373882228649	0.7025756585997932	0.6191589708637083	1.3205534805588777	0.7664928713797774
960	11.294117647058824	0.7032581768457264	0.8582164242859742	0.4031856232260897	0.6692392727411899	0.44963075949156467	0.39951666748809017	0.7052387807369673	0.07039179281491477	0.36669714393589875	0.5284183769476415	0.00928938049046927	0.33579632708928153	0.5825853975404638	0.014284610185123364	0.2987775159994456	0.7421287128542391	0.02567492939726566	0.3785904402376195	0.7069213712961374	0.8676982366335624	0.6246576156915631	0.6686440929599737	0.45740807091725716	0.6348246726633269	0.703557005750561	0.06424378007374705	0.6577374786801192	0.5479991052050907	0.01315046617270622	0.6957776701763307	0.585919087217156	0.019152565482986512	0.7273452598535727	0.7418943911451887	0.023528503478270086	0.6444599065475333	0.5215893714428982	1.3587528929230739	0.5161843965421369	0.35226243966995097	1.5860694799849506	0.4996798751693247	0.3603569186007366	1.3972283174757236	0.5062132076805198	0.5794477748914687	1.3213626153640705	0.3729762029839696	0.8009773885977496	1.2261197716832286	0.37881646976859423	0.6356199862687986	1.3355041659466844	0.2680791496689808	0.5623076416218846	1.3226974640647247	0.6554494753217319	0.7867335272480093	1.2193334338054316	0.7021382750375248	0.6191430143181893	1.3203733984646435	0.7665653799917316
961	11.305882352941175	0.7031115733248678	0.8582067581828832	0.40317681249684595	0.6686413158195953	0.44976329331057563	0.3994211618509848	0.7053309313960408	0.07028140822790997	0.3666628981962885	0.5283062874887209	0.009207376081843733	0.33562454652974943	0.5831601059888931	0.014325064802606495	0.29862073004378215	0.742199260391084	0.025668452416892862	0.37841137209352393	0.7063287800242577	0.8677292221472104	0.6245437805691192	0.6681113341136321	0.45737500205503356	0.6352799581816916	0.7034736019472595	0.06430447413552819	0.6577168466398244	0.5478638182318282	0.013166413159593741	0.6960235493541983	0.5856440615691542	0.019250661257787575	0.7273983846997241	0.7419892963278	0.023448102702124548	0.6444363754361842	0.5216490362831692	1.3589700251549193	0.5162085682798959	0.3525611667467555	1.5863029214813644	0.49983950109419445	0.3606882698719622	1.3975346277698644	0.5063112990150784	0.5786282686649739	1.321235413021371	0.37241530058627903	0.8012726395161004	1.2269149978509855	0.3789694108234128	0.6450755628407494	1.3340569835692877	0.27208716659985627	0.5629966686281686	1.3231262924484342	0.6555532227016122	0.787052807486506	1.2195652891037299	0.7015941149178081	0.6194581100902671	1.320358142349844	0.7665730513456419
962	11.31764705882353	0.7029564652364798	0.8582106494776143	0.40319096057976017	0.6681142554991962	0.4498529583309802	0.39932878827125057	0.7054755702283101	0.07017895931592559	0.3666285784687529	0.5281779484153093	0.009154624088562312	0.3354858893141428	0.5838061062405427	0.014342275235219765	0.29841775737746384	0.7422359718139727	0.02563117269858613	0.3782362695585711	0.7056883231564826	0.8677579319518707	0.6244066367056837	0.667577784787023	0.4573799075688479	0.635769003393121	0.7033349460806715	0.06432936460620509	0.6576407600605416	0.5478027475429929	0.013184441734580459	0.6962676466873594	0.5853722555073168	0.019398326867048607	0.7274089720209819	0.7420465712049594	0.023339427568788585	0.6443300300084458	0.5218370670995923	1.359240093701289	0.5160644784275529	0.3528383891322737	1.5865384465115202	0.5000285280599162	0.36101683128215456	1.3978096211181925	0.5062612056934958	0.5781538343472116	1.3212187942347597	0.372006336540879	0.8021306510824266	1.2280692134802025	0.37918528522694606	0.6548966341875244	1.3325686717759446	0.2759897505006471	0.5638548147576634	1.3237244413109757	0.6555604339647783	0.7873882460575102	1.2200458168428574	0.7009970161763176	0.620167627594833	1.3205607550399963	0.7665835922255233
963	11.329411764705885	0.7027892696490785	0.8582314836759933	0.4032392777816062	0.667598952587547	0.4499106749138495	0.39922423645770005	0.705692728599485	0.0700842901482952	0.3666010867593606	0.5280531247665836	0.009125546208630531	0.33540724493882607	0.5844674969991662	0.014338155999626997	0.29819834513222643	0.7422146093598547	0.025550328209570757	0.37812767811350007	0.705035231255318	0.8678000835084168	0.624269421060622	0.6671077157547102	0.45740409655263947	0.6362160049794421	0.7031242195292843	0.06431102480284896	0.6575120327679705	0.5478106935458921	0.013196642366327798	0.696481843926855	0.5851126745671917	0.01958943333228684	0.7273900628530523	0.7420352139197066	0.023184765255383592	0.6441638247025528	0.5221365491563263	1.3595333410945958	0.5157919734198081	0.35307534073289	1.5867662299838554	0.500226649357882	0.36135550065732325	1.397993209482873	0.506093738559188	0.5779993580759687	1.3213198363025018	0.3717480980352218	0.8034547064701942	1.2294887630828373	0.3795451781533993	0.6626206481405948	1.3315579856423727	0.27889305126900366	0.5647715020199154	1.3244224473164223	0.6555036498171867	0.7878078393258875	1.2207381248982234	0.7003329945839654	0.6212440213588826	1.321010019152028	0.7666293980286232
964	11.341176470588236	0.7026120667932279	0.8583002374647879	0.40332354794643904	0.6670608532763106	0.44994601389424455	0.3991022419305915	0.7059677090563963	0.07000189598825957	0.3665947838545781	0.5279212240735525	0.009093356668971033	0.33539152743769585	0.5850375553414919	0.014328381070183902	0.29799679280349073	0.7421228098689877	0.025421830827003583	0.37814196831169733	0.7044197202147102	0.8678824640027462	0.6241556262514067	0.6667434925652824	0.45743037414374743	0.6365685021215641	0.7028569163714311	0.06425116596897233	0.6573449988775463	0.5478686679968189	0.013198744947782354	0.6966502401379149	0.5848654689616296	0.019818082854338347	0.7273558498635806	0.741962832250639	0.022980033624639472	0.6439633636103131	0.5225083321578925	1.3598379168756016	0.5154561829584429	0.3532830040337118	1.5869638292716015	0.5004167700486468	0.36171373015922936	1.3980381976425127	0.5058315263181353	0.5780802677938642	1.3215597889463757	0.3716394457622668	0.8049789224301708	1.2310600232948925	0.3800841439544776	0.6655391477703595	1.3317203271078555	0.27988518602806256	0.5656450734652586	1.325143197349733	0.6554433971013358	0.7884248269820593	1.2215750736060642	0.6995358048121241	0.6225408802680127	1.321679352487939	0.7666764465431468
